<svg xmlns="http://www.w3.org/2000/svg" xmlns:xlink="http://www.w3.org/1999/xlink" width="800" zoomAndPan="magnify" viewBox="0 0 600 599.999999" height="800" preserveAspectRatio="xMidYMid meet" version="1.0"><defs><clipPath id="id1"><path d="M 1.839844 161.574219 L 598.757812 161.574219 L 598.757812 438.203125 L 1.839844 438.203125 Z M 1.839844 161.574219 " clip-rule="nonzero"/></clipPath></defs><path fill="#ec9740" d="M 597.285156 400.796875 C 597.195312 405.265625 597.039062 409.988281 594.664062 413.773438 C 592.230469 417.660156 587.902344 419.867188 583.789062 421.894531 C 576.339844 425.5625 568.894531 429.234375 561.441406 432.898438 C 555.429688 435.863281 549.367188 436.917969 542.660156 436.890625 C 378.960938 436.230469 215.5 425.191406 52.167969 414.160156 C 36.382812 413.089844 18.476562 410.90625 9.238281 398.078125 C 1.199219 386.917969 2.789062 371.761719 4.734375 358.152344 L 308.789062 205.90625 C 310.195312 193 317.074219 180.777344 327.378906 172.867188 C 337.683594 164.960938 351.285156 161.472656 364.132812 163.441406 C 374.789062 165.070312 384.539062 170.191406 394.066406 175.226562 C 403.144531 180.027344 412.222656 184.828125 421.300781 189.628906 C 440.582031 199.828125 459.925781 210.0625 477.761719 222.621094 C 518.589844 251.382812 550.085938 291.285156 579.246094 331.804688 C 583.464844 337.667969 587.675781 343.605469 590.679688 350.171875 C 597.828125 365.792969 597.625 383.628906 597.285156 400.796875 " fill-opacity="1" fill-rule="nonzero"/><path fill="#fcdf7b" d="M 558.414062 372.261719 C 553.582031 373.507812 549.230469 376.179688 545.25 379.183594 C 542.910156 380.949219 540.640625 382.871094 538.957031 385.273438 C 534.492188 391.65625 535.484375 400.523438 536.078125 408.289062 C 538.320312 411.242188 542.171875 412.476562 545.847656 413.011719 C 549.519531 413.546875 553.320312 413.578125 556.804688 414.863281 C 562.316406 416.90625 567.054688 422.039062 572.898438 421.347656 C 576.464844 420.929688 579.441406 418.289062 581.316406 415.222656 C 583.1875 412.160156 584.171875 408.652344 585.386719 405.273438 C 586.96875 400.867188 589.015625 396.4375 588.824219 391.761719 C 588.644531 387.28125 586.359375 383.058594 583.191406 379.875 C 580.023438 376.691406 576.03125 374.449219 571.914062 372.648438 C 567.34375 370.648438 563.25 371.007812 558.414062 372.261719 Z M 508.851562 402.34375 C 496.996094 409.246094 487.617188 412.199219 474.574219 407.960938 C 470.230469 406.550781 466.09375 404.535156 461.691406 403.3125 C 450.355469 400.179688 438.3125 402.5625 426.554688 402.242188 C 420.730469 402.085938 414.921875 401.253906 409.105469 401.589844 C 403.289062 401.921875 397.289062 403.574219 393.113281 407.632812 C 391.238281 409.453125 389.792969 411.699219 387.765625 413.347656 C 381.605469 418.359375 370.765625 415.140625 368.347656 407.574219 C 367.140625 403.796875 367.714844 399.339844 365.3125 396.183594 C 363.167969 393.363281 359.28125 392.511719 355.742188 392.515625 C 346.761719 392.523438 338.007812 396.699219 329.085938 395.6875 C 324.65625 395.1875 320.480469 393.425781 316.234375 392.074219 C 302.191406 387.617188 285.730469 386.203125 271.554688 390.203125 C 255.453125 394.75 238.394531 390.300781 221.722656 388.988281 C 216.367188 388.5625 210.121094 388.851562 206.855469 393.113281 C 205.6875 394.636719 205.050781 396.519531 203.878906 398.035156 C 200.453125 402.449219 193.558594 402.394531 188.507812 400.003906 C 183.460938 397.609375 179.46875 393.472656 174.71875 390.539062 C 162.453125 382.96875 146.804688 384.253906 132.640625 386.921875 C 127.914062 387.8125 123.167969 388.832031 118.359375 388.683594 C 111.816406 388.484375 105.515625 386.121094 98.992188 385.53125 C 86.714844 384.417969 74.257812 389.582031 62.191406 387.042969 C 53.757812 385.269531 46.449219 379.890625 38.0625 377.898438 C 32.632812 376.605469 26.933594 376.785156 21.480469 375.5625 C 16.246094 374.390625 10.90625 371.4375 8.957031 366.503906 C 5.894531 364.453125 4.136719 359.964844 5.402344 356.558594 C 37.941406 332.800781 76.972656 319.898438 112.703125 301.261719 C 161.832031 275.636719 205.1875 238.90625 257 219.246094 C 272.855469 213.226562 289.34375 208.886719 306.105469 206.320312 C 317.011719 204.648438 329.070312 202.425781 339.480469 206.09375 C 347.582031 208.941406 354.347656 214.597656 361.929688 218.621094 C 371.035156 223.460938 381.191406 225.886719 390.890625 229.386719 C 400.589844 232.886719 410.269531 237.796875 416.347656 246.121094 C 421.785156 253.574219 423.804688 263.050781 429.046875 270.644531 C 434.152344 278.039062 442.207031 283.503906 445.425781 291.898438 C 446.851562 295.621094 447.214844 299.703125 448.753906 303.390625 C 450.839844 308.378906 454.890625 312.246094 457.996094 316.675781 C 463.59375 324.667969 466.148438 334.609375 472.5 342.019531 C 475.964844 346.054688 480.40625 349.152344 483.957031 353.117188 C 488.777344 358.488281 491.765625 365.207031 494.675781 371.808594 C 499.148438 381.945312 504.382812 392.214844 508.851562 402.34375 " fill-opacity="1" fill-rule="nonzero"/><path fill="#91b23b" d="M 51.402344 357.117188 C 54.066406 357.003906 56.433594 355.496094 58.8125 354.285156 C 62.390625 352.46875 66.257812 351.242188 70.226562 350.664062 C 69.71875 348.347656 69.191406 345.988281 67.941406 343.972656 C 66.699219 341.957031 64.5625 340.332031 62.191406 340.335938 C 59.90625 340.335938 57.910156 341.792969 56.148438 343.242188 C 53.480469 345.433594 39.042969 357.667969 51.402344 357.117188 Z M 154.8125 293.285156 C 152.121094 293.796875 149.257812 294.585938 147.535156 296.710938 C 145.816406 298.824219 145.625 301.742188 145.511719 304.457031 C 145.410156 306.75 145.320312 309.101562 146.027344 311.285156 C 146.742188 313.472656 148.433594 315.484375 150.695312 315.902344 C 152.777344 316.289062 154.835938 315.292969 156.722656 314.328125 C 159.28125 313.011719 161.839844 311.695312 164.402344 310.382812 C 166.015625 309.554688 167.722656 308.636719 168.589844 307.046875 C 169.066406 306.175781 169.242188 305.179688 169.410156 304.207031 C 169.949219 301.109375 172.660156 294.070312 169.847656 292.101562 C 166.769531 289.945312 158.3125 293.285156 154.8125 293.285156 Z M 394.933594 273.554688 C 395.316406 274.507812 395.699219 275.640625 395.660156 276.6875 C 395.542969 280.050781 395.503906 284.164062 398.417969 285.855469 C 399.789062 286.652344 401.460938 286.636719 403.042969 286.601562 C 409.152344 286.464844 415.257812 286.332031 421.367188 286.191406 C 421.308594 281.269531 419.976562 276.367188 417.535156 272.085938 C 417.277344 271.636719 416.992188 271.179688 416.5625 270.882812 C 415.96875 270.472656 415.199219 270.441406 414.476562 270.441406 C 408.332031 270.433594 400.453125 270.746094 394.933594 273.554688 Z M 298.191406 228.730469 C 297.804688 229.328125 297.417969 230.121094 297.820312 230.707031 C 298 230.96875 298.300781 231.121094 298.585938 231.257812 C 301.667969 232.734375 309.65625 238.445312 312.886719 236.601562 C 314.9375 235.425781 317.113281 226.996094 316.9375 224.632812 C 316.65625 220.863281 314.023438 217.8125 310.175781 216.933594 C 303.941406 215.511719 301.472656 223.609375 298.191406 228.730469 Z M 292.8125 348.679688 C 292.519531 356.597656 302.378906 354.527344 306.5625 351.839844 C 309.917969 349.679688 313.472656 347 317.433594 347.496094 C 316.597656 343.027344 314.402344 338.828125 311.207031 335.601562 C 310.800781 335.195312 310.34375 334.78125 309.773438 334.699219 C 309.199219 334.621094 308.644531 334.890625 308.136719 335.167969 C 303.652344 337.542969 293.039062 342.601562 292.8125 348.679688 Z M 211.949219 286.34375 C 211.914062 285.039062 212.289062 283.386719 213.578125 283.148438 C 214.398438 282.992188 215.171875 283.523438 215.871094 283.972656 C 217.878906 285.257812 220.179688 286.082031 222.546875 286.363281 C 224.675781 286.613281 227.117188 286.535156 228.59375 288.089844 C 229.863281 289.414062 229.925781 291.445312 229.917969 293.28125 C 229.886719 299.867188 229.851562 306.453125 229.820312 313.039062 C 229.816406 313.671875 221.179688 312.703125 220.292969 312.222656 C 218.050781 310.992188 217.628906 309.960938 216.683594 307.675781 C 214.328125 301.988281 212.121094 292.503906 211.949219 286.34375 " fill-opacity="1" fill-rule="nonzero"/><path fill="#ed4742" d="M 406.492188 326.332031 C 380.597656 326.332031 359.609375 333.355469 359.609375 342.019531 L 359.609375 348.273438 C 359.609375 356.9375 380.597656 363.960938 406.492188 363.960938 C 432.394531 363.960938 453.386719 356.9375 453.386719 348.273438 L 453.386719 342.019531 C 453.386719 333.355469 432.394531 326.332031 406.492188 326.332031 Z M 313.132812 259.710938 C 287.234375 259.710938 266.242188 266.734375 266.242188 275.402344 L 266.242188 281.660156 C 266.242188 290.320312 287.234375 297.347656 313.132812 297.347656 C 339.027344 297.347656 360.019531 290.320312 360.019531 281.660156 L 360.019531 275.402344 C 360.019531 266.734375 339.027344 259.710938 313.132812 259.710938 Z M 185.597656 345.148438 L 185.597656 351.398438 C 185.597656 360.066406 164.601562 367.089844 138.707031 367.089844 C 112.808594 367.089844 91.816406 360.066406 91.816406 351.398438 L 91.816406 345.148438 C 91.816406 336.480469 112.808594 329.457031 138.707031 329.457031 C 164.601562 329.457031 185.597656 336.480469 185.597656 345.148438 " fill-opacity="1" fill-rule="nonzero"/><g clip-path="url(#id1)"><path fill="#682219" d="M 466.269531 375.417969 L 465.855469 372.777344 C 469.195312 372.25 472.425781 371.222656 475.449219 369.714844 L 476.640625 372.101562 C 473.371094 373.734375 469.882812 374.84375 466.269531 375.417969 Z M 445.617188 322.421875 L 436.316406 312.289062 L 438.285156 310.484375 L 447.589844 320.621094 Z M 247.480469 361.0625 C 246.976562 361.726562 246.8125 362.679688 247.097656 363.339844 C 247.8125 364.972656 249.941406 365.671875 251.550781 365.769531 L 251.386719 368.433594 C 248.914062 368.277344 245.839844 367.140625 244.648438 364.402344 C 243.976562 362.863281 244.261719 360.867188 245.359375 359.4375 C 246.300781 358.207031 247.644531 357.617188 249.039062 357.820312 L 248.652344 360.46875 C 248.089844 360.378906 247.679688 360.808594 247.480469 361.0625 Z M 382.875 239.460938 L 372.269531 232.757812 L 373.699219 230.503906 L 384.304688 237.199219 Z M 382.632812 301.691406 L 384.425781 303.671875 C 381.648438 306.1875 377.871094 307.617188 374.109375 307.617188 C 373.6875 307.617188 373.261719 307.597656 372.839844 307.558594 L 373.070312 304.902344 C 376.5 305.199219 380.074219 304 382.632812 301.691406 Z M 241.351562 254.65625 L 238.863281 253.6875 C 240.429688 249.683594 243.808594 246.53125 247.914062 245.246094 L 248.714844 247.792969 C 245.429688 248.820312 242.605469 251.453125 241.351562 254.65625 Z M 266.195312 323.398438 C 267.144531 322.128906 267.332031 320.316406 266.660156 318.882812 L 269.082031 317.75 C 270.175781 320.089844 269.882812 322.929688 268.335938 325 Z M 228.851562 341.769531 L 229.796875 344.273438 C 228.542969 344.742188 227.203125 344.976562 225.84375 344.976562 C 223.871094 344.976562 221.84375 344.488281 219.960938 343.523438 C 216.78125 341.890625 214.46875 339.140625 213.625 335.980469 L 216.207031 335.292969 C 216.855469 337.722656 218.667969 339.855469 221.183594 341.148438 C 223.695312 342.4375 226.492188 342.664062 228.851562 341.769531 Z M 56.996094 344.277344 C 58.53125 343.019531 60.324219 341.671875 62.199219 341.667969 C 62.199219 341.667969 62.203125 341.667969 62.203125 341.667969 C 64.222656 341.667969 65.90625 343.21875 66.808594 344.675781 C 67.710938 346.132812 68.207031 347.84375 68.613281 349.578125 C 64.992188 350.242188 61.5 351.425781 58.207031 353.097656 C 57.8125 353.300781 57.421875 353.503906 57.027344 353.714844 C 55.09375 354.734375 53.273438 355.703125 51.339844 355.785156 C 48.824219 355.898438 47.957031 355.417969 47.839844 355.121094 C 47.367188 353.894531 50.417969 349.675781 56.996094 344.277344 Z M 50.535156 358.476562 C 50.90625 358.476562 51.226562 358.464844 51.460938 358.457031 C 53.996094 358.34375 56.171875 357.1875 58.28125 356.070312 C 58.65625 355.871094 59.039062 355.667969 59.417969 355.480469 C 62.878906 353.71875 66.582031 352.539062 70.425781 351.984375 L 71.839844 351.777344 L 71.535156 350.378906 C 71.035156 348.09375 70.464844 345.496094 69.082031 343.269531 C 67.449219 340.636719 64.808594 339 62.203125 339 C 62.199219 339 62.191406 339 62.1875 339 C 59.4375 339.003906 57.1875 340.65625 55.300781 342.214844 C 50 346.5625 43.96875 352.503906 45.34375 356.074219 C 46.160156 358.199219 48.875 358.476562 50.535156 358.476562 Z M 146.847656 304.515625 C 146.964844 301.71875 147.179688 299.265625 148.570312 297.550781 C 150 295.789062 152.472656 295.097656 154.949219 294.617188 C 156.277344 294.59375 158.023438 294.210938 160.027344 293.769531 C 163.199219 293.070312 167.535156 292.109375 169.078125 293.191406 C 170.527344 294.207031 169.335938 298.890625 168.691406 301.414062 C 168.433594 302.40625 168.214844 303.261719 168.09375 303.980469 C 167.945312 304.835938 167.792969 305.71875 167.414062 306.40625 C 166.765625 307.597656 165.390625 308.375 163.789062 309.195312 L 156.109375 313.140625 C 154.226562 314.109375 152.53125 314.882812 150.9375 314.589844 C 149.371094 314.300781 147.945312 312.835938 147.300781 310.871094 C 146.65625 308.898438 146.753906 306.667969 146.847656 304.515625 Z M 150.453125 317.214844 C 150.847656 317.289062 151.25 317.324219 151.640625 317.324219 C 153.8125 317.324219 155.8125 316.296875 157.332031 315.515625 L 165.011719 311.570312 C 166.554688 310.777344 168.667969 309.695312 169.765625 307.679688 C 170.347656 306.609375 170.546875 305.457031 170.730469 304.433594 C 170.835938 303.820312 171.050781 302.972656 171.28125 302.074219 C 172.25 298.277344 173.578125 293.078125 170.613281 291.007812 C 168.109375 289.25 163.511719 290.265625 159.453125 291.160156 C 157.613281 291.566406 155.867188 291.949219 154.8125 291.949219 L 154.566406 291.972656 C 151.695312 292.515625 148.496094 293.40625 146.492188 295.871094 C 144.433594 298.40625 144.285156 301.867188 144.175781 304.398438 C 144.078125 306.679688 143.964844 309.261719 144.757812 311.699219 C 145.503906 313.992188 147.394531 316.648438 150.453125 317.214844 Z M 414.234375 271.78125 C 414.851562 271.78125 415.496094 271.765625 415.808594 271.980469 C 416.003906 272.117188 416.195312 272.4375 416.371094 272.75 C 418.492188 276.460938 419.730469 280.632812 419.980469 284.886719 L 403.015625 285.269531 C 401.410156 285.300781 400.089844 285.289062 399.089844 284.699219 C 396.945312 283.457031 396.878906 280.222656 397 276.734375 C 397.027344 275.882812 396.84375 275.027344 396.601562 274.25 C 401.671875 272.085938 408.597656 271.78125 414.234375 271.78125 Z M 394.328125 276.640625 C 394.210938 279.914062 394.039062 284.859375 397.746094 287.011719 C 399.148438 287.824219 400.722656 287.953125 402.113281 287.953125 C 402.445312 287.953125 402.769531 287.941406 403.074219 287.9375 L 422.71875 287.5 L 422.703125 286.175781 C 422.644531 281.015625 421.257812 275.914062 418.699219 271.425781 C 418.375 270.867188 417.980469 270.238281 417.324219 269.78125 C 416.347656 269.109375 415.175781 269.109375 414.476562 269.105469 C 408.136719 269.117188 400.03125 269.460938 394.324219 272.367188 L 393.234375 272.921875 L 393.691406 274.058594 C 394 274.824219 394.355469 275.824219 394.328125 276.640625 Z M 299.320312 229.449219 C 300.046875 228.3125 300.738281 227.027344 301.410156 225.789062 C 304.164062 220.6875 306.238281 217.40625 309.878906 218.234375 C 313.117188 218.976562 315.367188 221.523438 315.605469 224.726562 C 315.773438 227.015625 313.523438 234.695312 312.222656 235.441406 C 310.378906 236.488281 304.90625 233.308594 301.957031 231.601562 C 300.859375 230.960938 299.90625 230.410156 299.167969 230.054688 C 299.132812 230.039062 299.078125 230.007812 299.03125 229.992188 C 299.066406 229.878906 299.152344 229.707031 299.320312 229.449219 Z M 298.007812 232.464844 C 298.652344 232.773438 299.5625 233.296875 300.617188 233.90625 C 304.746094 236.308594 308.472656 238.304688 311.308594 238.304688 C 312.132812 238.304688 312.890625 238.136719 313.550781 237.753906 C 316.367188 236.144531 318.4375 226.796875 318.269531 224.53125 C 317.945312 220.136719 314.886719 216.640625 310.472656 215.632812 C 304.578125 214.285156 301.644531 219.726562 299.054688 224.523438 C 298.378906 225.777344 297.738281 226.957031 297.066406 228.007812 L 297.066406 228.011719 C 296.195312 229.367188 296.078125 230.527344 296.71875 231.460938 C 297.105469 232.027344 297.671875 232.300781 298.007812 232.464844 Z M 306.871094 350.046875 L 305.839844 350.71875 C 302.96875 352.5625 298.101562 353.671875 295.710938 352.3125 C 294.59375 351.679688 294.082031 350.503906 294.148438 348.726562 C 294.324219 343.882812 303.320312 339.1875 307.644531 336.933594 L 308.761719 336.34375 L 308.761719 336.339844 C 308.957031 336.238281 309.414062 336 309.589844 336.023438 C 309.703125 336.039062 309.933594 336.214844 310.253906 336.539062 C 312.867188 339.175781 314.78125 342.539062 315.753906 346.125 C 312.460938 346.382812 309.519531 348.3125 306.871094 350.046875 Z M 309.960938 333.378906 C 308.929688 333.238281 308.039062 333.703125 307.507812 333.984375 L 306.40625 334.566406 C 300.910156 337.429688 291.714844 342.230469 291.476562 348.628906 C 291.34375 352.148438 292.984375 353.835938 294.390625 354.636719 C 295.558594 355.300781 296.976562 355.578125 298.460938 355.578125 C 301.6875 355.578125 305.230469 354.28125 307.289062 352.964844 L 308.332031 352.277344 C 311.21875 350.394531 314.199219 348.441406 317.269531 348.820312 L 319.082031 349.042969 L 318.746094 347.25 C 317.867188 342.539062 315.523438 338.070312 312.152344 334.660156 C 311.570312 334.070312 310.902344 333.507812 309.960938 333.378906 Z M 213.824219 284.457031 C 214.078125 284.410156 214.636719 284.769531 215.046875 285.03125 L 215.152344 285.097656 C 217.320312 286.492188 219.828125 287.386719 222.390625 287.691406 C 222.769531 287.734375 223.15625 287.769531 223.542969 287.800781 C 225.1875 287.953125 226.746094 288.085938 227.628906 289.007812 C 228.523438 289.949219 228.589844 291.5625 228.578125 293.367188 L 228.492188 311.921875 C 226.425781 311.898438 221.699219 311.335938 220.9375 311.050781 C 219.113281 310.058594 218.84375 309.394531 217.917969 307.164062 C 215.523438 301.378906 213.445312 292.023438 213.289062 286.308594 C 213.261719 285.308594 213.550781 284.507812 213.824219 284.457031 Z M 219.652344 313.390625 C 220.285156 313.738281 225.316406 314.566406 228.355469 314.566406 C 229.316406 314.566406 230.082031 314.480469 230.441406 314.273438 L 231.152344 313.804688 L 231.25 293.285156 C 231.265625 291.101562 231.144531 288.824219 229.5625 287.167969 C 227.988281 285.515625 225.753906 285.320312 223.78125 285.144531 C 223.417969 285.109375 223.054688 285.078125 222.703125 285.035156 C 220.539062 284.785156 218.425781 284.023438 216.59375 282.851562 L 216.496094 282.785156 C 215.714844 282.277344 214.632812 281.585938 213.332031 281.835938 C 211.585938 282.160156 210.546875 283.902344 210.617188 286.382812 C 210.785156 292.46875 212.90625 302.046875 215.460938 308.222656 C 216.421875 310.546875 217.003906 311.949219 219.652344 313.390625 Z M 406.492188 327.664062 C 433.746094 327.664062 452.046875 335.085938 452.046875 342.019531 C 452.046875 348.949219 433.746094 356.375 406.492188 356.375 C 379.246094 356.375 360.941406 348.949219 360.941406 342.019531 C 360.941406 335.085938 379.246094 327.664062 406.492188 327.664062 Z M 452.046875 348.273438 C 452.046875 355.203125 433.746094 362.628906 406.492188 362.628906 C 379.246094 362.628906 360.941406 355.203125 360.941406 348.273438 L 360.941406 347.710938 C 367.441406 354.375 385.136719 359.042969 406.492188 359.042969 C 427.855469 359.042969 445.550781 354.375 452.046875 347.710938 Z M 358.269531 342.019531 L 358.269531 348.273438 C 358.269531 357.820312 379.457031 365.296875 406.492188 365.296875 C 433.539062 365.296875 454.722656 357.820312 454.722656 348.273438 L 454.722656 342.019531 C 454.722656 332.46875 433.539062 324.996094 406.492188 324.996094 C 379.457031 324.996094 358.269531 332.46875 358.269531 342.019531 Z M 93.152344 350.839844 C 99.648438 357.503906 117.347656 362.171875 138.707031 362.171875 C 160.070312 362.171875 177.761719 357.503906 184.257812 350.839844 L 184.257812 351.398438 C 184.257812 358.335938 165.953125 365.753906 138.707031 365.753906 C 111.457031 365.753906 93.152344 358.335938 93.152344 351.398438 Z M 138.707031 330.792969 C 165.953125 330.792969 184.257812 338.210938 184.257812 345.148438 C 184.257812 352.078125 165.953125 359.5 138.707031 359.5 C 111.457031 359.5 93.152344 352.078125 93.152344 345.148438 C 93.152344 338.210938 111.457031 330.792969 138.707031 330.792969 Z M 138.707031 368.425781 C 165.75 368.425781 186.933594 360.945312 186.933594 351.398438 L 186.933594 345.148438 C 186.933594 335.601562 165.75 328.121094 138.707031 328.121094 C 111.664062 328.121094 90.480469 335.601562 90.480469 345.148438 L 90.480469 351.398438 C 90.480469 360.945312 111.664062 368.425781 138.707031 368.425781 Z M 267.578125 280.125 C 274.074219 286.792969 291.769531 291.457031 313.132812 291.457031 C 334.492188 291.457031 352.1875 286.792969 358.683594 280.125 L 358.683594 280.683594 C 358.683594 287.621094 340.378906 295.039062 313.132812 295.039062 C 285.882812 295.039062 267.578125 287.621094 267.578125 280.683594 Z M 313.132812 260.078125 C 340.378906 260.078125 358.683594 267.5 358.683594 274.433594 C 358.683594 281.367188 340.378906 288.789062 313.132812 288.789062 C 285.882812 288.789062 267.578125 281.367188 267.578125 274.433594 C 267.578125 267.5 285.882812 260.078125 313.132812 260.078125 Z M 313.132812 297.714844 C 340.175781 297.714844 361.355469 290.234375 361.355469 280.683594 L 361.355469 274.433594 C 361.355469 264.886719 340.175781 257.40625 313.132812 257.40625 C 286.089844 257.40625 264.902344 264.886719 264.902344 274.433594 L 264.902344 280.683594 C 264.902344 290.234375 286.089844 297.714844 313.132812 297.714844 Z M 167.640625 377.929688 C 120.597656 376.199219 80.808594 373.171875 27.859375 363.445312 L 28.347656 360.816406 C 81.132812 370.515625 120.816406 373.535156 167.742188 375.261719 C 189.929688 376.074219 212.527344 376.191406 234.382812 376.308594 C 269.324219 376.488281 305.457031 376.675781 340.875 379.722656 C 346.835938 380.234375 352.882812 380.839844 358.730469 381.421875 C 369.113281 382.457031 379.84375 383.527344 390.414062 384.125 C 402.757812 384.824219 414.132812 384.683594 425.132812 384.546875 C 445.839844 384.300781 465.386719 384.0625 488.140625 389.390625 L 487.53125 391.992188 C 465.09375 386.738281 445.699219 386.96875 425.167969 387.222656 C 414.117188 387.355469 402.699219 387.492188 390.265625 386.789062 C 379.632812 386.1875 368.875 385.117188 358.464844 384.078125 C 352.625 383.496094 346.585938 382.894531 340.644531 382.386719 C 305.335938 379.351562 269.257812 379.160156 234.367188 378.980469 C 212.496094 378.867188 189.875 378.75 167.640625 377.929688 Z M 576.367188 398.027344 L 579.019531 398.382812 L 578.449219 402.585938 L 575.800781 402.226562 Z M 581.3125 390.449219 L 578.683594 390.929688 C 577.785156 385.992188 574.453125 381.496094 569.984375 379.199219 L 571.210938 376.824219 C 576.398438 379.5 580.273438 384.71875 581.3125 390.449219 Z M 584.929688 402.65625 C 584.660156 403.378906 584.386719 404.101562 584.128906 404.824219 C 583.867188 405.539062 583.621094 406.265625 583.375 406.988281 C 582.449219 409.683594 581.578125 412.234375 580.175781 414.53125 C 578.242188 417.691406 575.535156 419.695312 572.742188 420.027344 C 569.414062 420.410156 566.375 418.589844 563.148438 416.65625 C 561.273438 415.535156 559.339844 414.375 557.265625 413.613281 C 554.632812 412.636719 551.863281 412.34375 549.179688 412.0625 C 548.132812 411.953125 547.082031 411.84375 546.042969 411.6875 C 541.921875 411.085938 539.078125 409.804688 537.378906 407.777344 L 537.308594 406.871094 C 536.75 399.75 536.113281 391.675781 540.054688 386.039062 C 541.707031 383.675781 544.015625 381.785156 546.054688 380.25 C 550.753906 376.703125 554.78125 374.582031 558.75 373.550781 C 563.238281 372.390625 567.105469 372 571.378906 373.871094 C 576.164062 375.96875 579.613281 378.171875 582.238281 380.816406 C 585.46875 384.058594 587.332031 387.964844 587.488281 391.820312 C 587.636719 395.460938 586.261719 399.121094 584.929688 402.65625 Z M 572.457031 371.425781 C 567.476562 369.246094 563.109375 369.667969 558.078125 370.964844 C 553.761719 372.082031 549.429688 374.351562 544.441406 378.117188 C 542.238281 379.78125 539.726562 381.839844 537.863281 384.503906 C 533.371094 390.925781 534.046875 399.507812 534.644531 407.082031 L 534.777344 408.78125 L 535.011719 409.09375 C 537.125 411.878906 540.609375 413.59375 545.65625 414.332031 C 546.726562 414.488281 547.816406 414.605469 548.902344 414.71875 C 551.53125 414.996094 554.015625 415.261719 556.339844 416.117188 C 558.175781 416.796875 560.003906 417.890625 561.773438 418.949219 C 564.898438 420.820312 568.121094 422.75 571.816406 422.75 C 572.222656 422.75 572.632812 422.726562 573.054688 422.675781 C 576.667969 422.25 580.09375 419.789062 582.460938 415.917969 C 584.011719 413.375 584.972656 410.566406 585.902344 407.855469 C 586.148438 407.140625 586.390625 406.429688 586.640625 405.726562 C 586.898438 405.015625 587.164062 404.304688 587.433594 403.597656 C 588.859375 399.8125 590.332031 395.894531 590.160156 391.707031 C 589.976562 387.1875 587.835938 382.652344 584.136719 378.933594 C 581.265625 376.046875 577.554688 373.65625 572.457031 371.425781 Z M 595.945312 400.769531 C 595.867188 404.855469 595.773438 409.480469 593.53125 413.066406 C 591.222656 416.746094 586.773438 418.9375 583.195312 420.695312 L 560.847656 431.703125 C 555.453125 434.363281 549.703125 435.546875 542.671875 435.558594 C 378.960938 434.894531 212.875 423.671875 52.253906 412.828125 C 36.617188 411.773438 19.191406 409.609375 10.320312 397.300781 C 3.863281 388.328125 3.875 376.449219 5.257812 364.488281 C 5.941406 365.601562 6.820312 366.597656 7.867188 367.375 C 10.675781 373.863281 18.085938 376.167969 21.1875 376.867188 C 23.929688 377.476562 26.730469 377.753906 29.445312 378.011719 C 32.207031 378.277344 35.0625 378.558594 37.757812 379.195312 C 41.691406 380.132812 45.503906 381.894531 49.191406 383.601562 C 53.238281 385.46875 57.421875 387.40625 61.917969 388.351562 C 68.78125 389.796875 75.777344 388.828125 82.542969 387.886719 C 87.929688 387.140625 93.5 386.367188 98.871094 386.859375 C 101.730469 387.117188 104.628906 387.746094 107.4375 388.351562 C 110.964844 389.117188 114.605469 389.902344 118.320312 390.015625 C 122.808594 390.15625 127.246094 389.308594 131.535156 388.492188 L 132.886719 388.238281 C 145.570312 385.847656 161.707031 384.078125 174.011719 391.675781 C 175.910156 392.84375 177.738281 394.257812 179.507812 395.625 C 182.128906 397.644531 184.835938 399.742188 187.9375 401.207031 C 193.449219 403.820312 201.0625 403.847656 204.929688 398.851562 C 205.597656 397.996094 206.085938 397.074219 206.5625 396.183594 C 206.996094 395.363281 207.40625 394.589844 207.914062 393.921875 C 210.230469 390.90625 214.585938 389.765625 221.617188 390.320312 C 225.882812 390.652344 230.269531 391.207031 234.507812 391.742188 C 246.898438 393.3125 259.707031 394.933594 271.917969 391.488281 C 284.714844 387.875 300.71875 388.554688 315.828125 393.351562 C 316.863281 393.675781 317.890625 394.03125 318.917969 394.386719 C 322.128906 395.484375 325.449219 396.621094 328.9375 397.015625 C 334.089844 397.597656 339.167969 396.527344 344.089844 395.492188 C 347.910156 394.6875 351.871094 393.855469 355.742188 393.847656 C 355.746094 393.847656 355.75 393.847656 355.757812 393.847656 C 358.035156 393.847656 362.167969 394.257812 364.25 396.992188 C 365.539062 398.691406 365.847656 400.957031 366.167969 403.351562 C 366.375 404.878906 366.589844 406.460938 367.074219 407.984375 C 368.347656 411.953125 371.785156 415.121094 376.269531 416.457031 C 377.722656 416.886719 379.179688 417.101562 380.601562 417.101562 C 383.59375 417.101562 386.417969 416.167969 388.609375 414.378906 C 389.882812 413.347656 390.921875 412.121094 391.929688 410.9375 C 392.640625 410.101562 393.304688 409.308594 394.046875 408.589844 C 398.382812 404.375 404.671875 403.183594 409.179688 402.921875 C 412.789062 402.710938 416.492188 402.972656 420.078125 403.21875 C 422.1875 403.363281 424.359375 403.519531 426.519531 403.578125 C 430.429688 403.679688 434.421875 403.492188 438.28125 403.304688 C 445.976562 402.9375 453.933594 402.558594 461.335938 404.605469 C 463.765625 405.277344 466.191406 406.234375 468.535156 407.152344 C 470.359375 407.867188 472.25 408.609375 474.160156 409.234375 C 487.796875 413.667969 497.804688 410.324219 509.523438 403.5 L 510.558594 402.898438 L 510.085938 401.835938 C 504.457031 388.25 512.445312 373.253906 522.855469 364.417969 C 532.335938 356.375 545.964844 351.597656 563.359375 350.230469 C 569.75 349.726562 577.214844 349.554688 584.015625 352.101562 C 591.246094 354.804688 594.136719 366.449219 594.859375 370.007812 C 596.335938 380.335938 596.140625 390.953125 595.945312 400.769531 Z M 6.539062 357.382812 C 27.699219 342.007812 52.058594 330.996094 75.625 320.347656 C 88.097656 314.707031 101.003906 308.875 113.324219 302.445312 C 132.882812 292.246094 151.800781 280.113281 170.101562 268.375 C 197.761719 250.636719 226.363281 232.300781 257.472656 220.492188 C 273.222656 214.511719 289.652344 210.191406 306.308594 207.636719 L 308.34375 207.328125 C 318.785156 205.699219 329.585938 204.023438 339.039062 207.351562 C 343.996094 209.097656 348.578125 212.011719 353.015625 214.828125 C 355.6875 216.53125 358.445312 218.285156 361.300781 219.804688 C 367.71875 223.210938 374.703125 225.457031 381.457031 227.632812 C 384.417969 228.589844 387.480469 229.578125 390.4375 230.644531 C 402.441406 234.976562 410.332031 240.140625 415.265625 246.90625 C 417.980469 250.628906 419.878906 255.011719 421.714844 259.253906 C 423.492188 263.363281 425.328125 267.617188 427.945312 271.398438 C 429.96875 274.335938 432.449219 276.976562 434.847656 279.53125 C 438.675781 283.609375 442.289062 287.460938 444.175781 292.371094 C 444.824219 294.0625 445.238281 295.816406 445.679688 297.675781 C 446.164062 299.738281 446.675781 301.867188 447.523438 303.902344 C 448.996094 307.429688 451.382812 310.398438 453.691406 313.269531 C 454.777344 314.621094 455.902344 316.023438 456.902344 317.445312 C 459.3125 320.886719 461.199219 324.816406 463.023438 328.617188 C 465.386719 333.535156 467.832031 338.621094 471.484375 342.882812 C 473.355469 345.070312 475.503906 346.984375 477.578125 348.839844 C 479.417969 350.480469 481.3125 352.175781 482.960938 354.007812 C 487.683594 359.273438 490.617188 365.921875 493.453125 372.347656 C 495.695312 377.429688 498.167969 382.628906 500.554688 387.648438 C 502.765625 392.296875 505.046875 397.089844 507.140625 401.789062 C 496.25 407.988281 487.34375 410.707031 474.984375 406.695312 C 473.152344 406.09375 471.300781 405.371094 469.515625 404.667969 C 467.109375 403.71875 464.613281 402.742188 462.050781 402.03125 C 454.234375 399.871094 446.058594 400.261719 438.152344 400.640625 C 434.34375 400.820312 430.40625 401.011719 426.589844 400.90625 C 424.492188 400.851562 422.34375 400.699219 420.265625 400.554688 C 416.601562 400.300781 412.804688 400.039062 409.03125 400.257812 C 404.0625 400.542969 397.105469 401.882812 392.183594 406.675781 C 391.351562 407.480469 390.605469 408.363281 389.886719 409.210938 C 388.917969 410.355469 388.003906 411.4375 386.925781 412.3125 C 384.371094 414.386719 380.675781 414.980469 377.035156 413.894531 C 373.394531 412.816406 370.621094 410.300781 369.621094 407.171875 C 369.210938 405.875 369.019531 404.472656 368.816406 402.992188 C 368.464844 400.359375 368.09375 397.640625 366.375 395.375 C 363.734375 391.910156 359.144531 391.179688 355.757812 391.179688 C 355.75 391.179688 355.742188 391.179688 355.738281 391.179688 C 351.589844 391.183594 347.496094 392.046875 343.539062 392.878906 C 338.613281 393.914062 333.960938 394.902344 329.234375 394.363281 C 326.039062 394 323.003906 392.960938 319.785156 391.855469 C 318.738281 391.496094 317.6875 391.136719 316.632812 390.804688 C 301.042969 385.855469 284.480469 385.167969 271.1875 388.921875 C 259.503906 392.21875 246.96875 390.628906 234.84375 389.09375 C 230.574219 388.554688 226.160156 388 221.828125 387.65625 C 216.78125 387.257812 209.628906 387.304688 205.792969 392.304688 C 205.144531 393.144531 204.664062 394.054688 204.199219 394.929688 C 203.761719 395.757812 203.339844 396.546875 202.820312 397.214844 C 199.8125 401.097656 193.632812 400.949219 189.082031 398.796875 C 186.246094 397.449219 183.769531 395.539062 181.144531 393.515625 C 179.320312 392.101562 177.4375 390.644531 175.417969 389.402344 C 162.332031 381.324219 145.546875 383.132812 132.390625 385.609375 L 131.035156 385.867188 C 126.882812 386.65625 122.59375 387.457031 118.402344 387.347656 C 114.933594 387.238281 111.566406 386.511719 108 385.746094 C 105.121094 385.121094 102.136719 384.472656 99.113281 384.203125 C 93.4375 383.6875 87.710938 384.476562 82.175781 385.242188 C 75.335938 386.191406 68.878906 387.085938 62.46875 385.738281 C 58.269531 384.855469 54.40625 383.070312 50.316406 381.175781 C 46.511719 379.414062 42.570312 377.59375 38.375 376.597656 C 35.5 375.917969 32.550781 375.628906 29.703125 375.359375 C 27.074219 375.101562 24.347656 374.835938 21.773438 374.257812 C 16.058594 372.976562 11.734375 369.894531 10.195312 366.015625 L 10.046875 365.628906 L 9.703125 365.394531 C 7.1875 363.714844 5.78125 360.0625 6.539062 357.382812 Z M 328.195312 173.925781 C 338.152344 166.289062 351.515625 162.859375 363.925781 164.757812 C 374.476562 166.375 384.117188 171.476562 393.441406 176.410156 L 420.675781 190.808594 C 439.609375 200.824219 459.195312 211.179688 476.988281 223.710938 C 517.652344 252.355469 549.648438 292.96875 578.160156 332.582031 C 582.832031 339.074219 586.632812 344.535156 589.46875 350.726562 C 589.957031 351.804688 590.40625 352.890625 590.832031 353.988281 C 589.230469 352.066406 587.300781 350.476562 584.953125 349.597656 C 577.660156 346.867188 569.839844 347.039062 563.148438 347.566406 C 545.183594 348.980469 531.046875 353.964844 521.121094 362.386719 C 512.671875 369.558594 505.746094 380.597656 505.570312 391.980469 C 504.703125 390.140625 503.832031 388.3125 502.972656 386.503906 C 500.589844 381.496094 498.125 376.320312 495.902344 371.273438 L 495.902344 371.269531 C 492.980469 364.65625 489.960938 357.808594 484.953125 352.226562 C 483.207031 350.28125 481.253906 348.539062 479.359375 346.847656 C 477.351562 345.050781 475.269531 343.191406 473.515625 341.148438 C 470.089844 337.152344 467.828125 332.441406 465.433594 327.457031 C 464.199219 324.890625 462.921875 322.273438 461.480469 319.746094 C 463.6875 321.105469 466.128906 322.3125 468.8125 323.355469 C 474.9375 325.738281 481.441406 326.988281 487.726562 328.195312 L 488.230469 325.570312 C 482.058594 324.390625 475.679688 323.164062 469.78125 320.863281 C 463.226562 318.308594 458.175781 314.765625 454.765625 310.324219 L 454.761719 310.328125 C 452.851562 307.929688 451.117188 305.578125 449.988281 302.875 C 449.226562 301.042969 448.769531 299.109375 448.28125 297.0625 C 447.839844 295.199219 447.382812 293.273438 446.667969 291.417969 C 444.597656 286.019531 440.636719 281.792969 436.796875 277.703125 C 434.46875 275.222656 432.058594 272.65625 430.148438 269.882812 C 427.683594 266.3125 425.898438 262.183594 424.167969 258.191406 C 422.273438 253.820312 420.316406 249.296875 417.425781 245.332031 C 411.128906 236.703125 401.21875 231.890625 393.542969 228.953125 C 398.113281 228.820312 402.660156 227.957031 406.96875 226.339844 L 406.023438 223.839844 C 397.992188 226.859375 389.054688 227.121094 380.855469 224.574219 L 380.835938 224.628906 C 374.644531 222.628906 368.316406 220.503906 362.554688 217.441406 C 359.792969 215.980469 357.082031 214.253906 354.449219 212.582031 C 349.890625 209.679688 345.171875 206.679688 339.929688 204.828125 C 330.625 201.554688 320 202.839844 310.351562 204.3125 C 312.125 192.472656 318.699219 181.214844 328.195312 173.925781 Z M 591.898438 349.621094 C 588.964844 343.207031 585.089844 337.636719 580.332031 331.027344 C 551.679688 291.214844 519.515625 250.402344 478.53125 221.53125 C 460.59375 208.902344 440.9375 198.503906 421.925781 188.449219 L 394.691406 174.046875 C 385.171875 169.011719 375.324219 163.804688 364.335938 162.125 C 351.203125 160.109375 337.09375 163.730469 326.5625 171.8125 C 316.3125 179.679688 309.285156 191.921875 307.597656 204.738281 L 305.902344 204.996094 C 289.0625 207.578125 272.449219 211.953125 256.527344 217.992188 C 225.152344 229.902344 196.429688 248.320312 168.65625 266.128906 C 150.40625 277.835938 131.535156 289.9375 112.082031 300.082031 C 99.832031 306.46875 86.960938 312.289062 74.519531 317.910156 C 50.703125 328.679688 26.078125 339.808594 4.613281 355.480469 L 4.289062 355.714844 L 4.152344 356.09375 C 3.921875 356.703125 3.785156 357.347656 3.714844 358.007812 L 3.410156 357.964844 C 1.34375 372.457031 0.0078125 387.546875 8.152344 398.859375 C 17.699219 412.113281 35.832031 414.394531 52.078125 415.488281 C 212.738281 426.347656 378.863281 437.566406 542.65625 438.226562 C 542.746094 438.226562 542.828125 438.226562 542.914062 438.226562 C 550.234375 438.226562 556.316406 436.914062 562.035156 434.097656 L 584.378906 423.089844 C 588.257812 421.179688 593.085938 418.804688 595.796875 414.484375 C 598.4375 410.273438 598.539062 405.03125 598.621094 400.820312 C 598.945312 384.414062 599.308594 365.8125 591.898438 349.621094 " fill-opacity="1" fill-rule="nonzero"/></g></svg>